<?xml version="1.0" encoding="UTF-8"?>
<svg width="178px" height="40px" viewBox="0 0 178 40" version="1.1" xmlns="http://www.w3.org/2000/svg" xmlns:xlink="http://www.w3.org/1999/xlink">
    <!-- Generator: Sketch 55 (78076) - https://sketchapp.com -->
    <title>audiusLogoHorizontal</title>
    <desc>Created with Sketch.</desc>
    <g id="Page-1" stroke="none" stroke-width="1" fill="none" fill-rule="evenodd">
        <g id="assets" transform="translate(-984.000000, -3805.000000)" fill="#FFFFFF">
            <g id="audiusLogoHorizontal" transform="translate(978.000000, 3805.000000)">
                <path d="M169.6,27.5801503 L172.145342,24.4441975 C173.771524,25.7811312 175.586442,26.486172 177.495372,26.486172 C178.720783,26.486172 179.380698,26.0486433 179.380698,25.3193592 L179.380698,25.2706637 C179.380698,24.5657274 178.838604,24.1768943 176.599716,23.6419745 C173.088309,22.8154038 170.377938,21.7944688 170.377938,18.2939261 L170.377938,18.245335 C170.377938,15.0850344 172.805459,12.8 176.764745,12.8 C179.569129,12.8 181.761011,13.5778751 183.552121,15.0606866 L181.266125,18.3910038 C179.757865,17.2972344 178.107977,16.7137235 176.646925,16.7137235 C175.539233,16.7137235 174.996935,17.2000522 174.996935,17.8077019 L174.996935,17.8561885 C174.996935,18.6341681 175.562635,18.9745146 177.848833,19.5094344 C181.643089,20.3601439 184,21.6242433 184,24.8087872 L184,24.8573783 C184,28.3337822 181.336838,30.4 177.330444,30.4 C174.407834,30.4 171.626852,29.4518994 169.6,27.5801503 Z M147.2,22.5010147 L147.2,12.8 L152.034241,12.8 L152.034241,22.4021222 C152.034241,24.8952318 153.28584,26.0801379 155.200105,26.0801379 C157.113949,26.0801379 158.365654,24.944678 158.365654,22.5255256 L158.365654,12.8 L163.2,12.8 L163.2,22.3775051 C163.2,27.9562305 160.034346,30.4 155.150949,30.4 C150.267446,30.4 147.2,27.9067843 147.2,22.5010147 Z M131.2,30.4 L131.2,12.8 L136,12.8 L136,30.4 L131.2,30.4 Z M113.930217,25.6354625 C116.789889,25.6354625 118.688389,24.0796077 118.688389,21.3325924 L118.688389,21.2840013 C118.688389,18.5614383 116.789889,16.9813402 113.930217,16.9813402 L111.982652,16.9813402 L111.982652,25.6354625 L113.930217,25.6354625 Z M107.2,12.8 L113.856354,12.8 C120.019723,12.8 123.594287,16.3005427 123.594287,21.2110624 L123.594287,21.259758 C123.594287,26.1702777 119.97034,29.8166981 113.757905,29.8166981 L107.2,29.8166981 L107.2,12.8 Z M81.6,22.5010147 L81.6,12.8 L86.4343464,12.8 L86.4343464,22.4021222 C86.4343464,24.8952318 87.6859452,26.0801379 89.5998945,26.0801379 C91.5140548,26.0801379 92.7656536,24.944678 92.7656536,22.5255256 L92.7656536,12.8 L97.6,12.8 L97.6,22.3775051 C97.6,27.9562305 94.434241,30.4 89.5507377,30.4 C84.667551,30.4 81.6,27.9067843 81.6,22.5010147 Z M67.5374542,23.2288982 L65.6144745,18.3912128 L63.6670152,23.2288982 L67.5374542,23.2288982 Z M63.3465539,12.8 L67.9565761,12.8 L75.3031299,29.9382281 L70.1753254,29.9382281 L68.9180659,26.8995618 L62.2618178,26.8995618 L61.02925,29.9382281 L56,29.9382281 L63.3465539,12.8 Z M46.2501693,38.3635433 C46.6763941,39.091346 46.142496,40.0005172 45.2889074,39.9999998 L34.1921671,39.9927554 L23.1173295,39.9855972 L14.235732,39.9797327 C13.3823186,39.979129 12.8495594,39.0694403 13.276748,38.342155 L17.5652798,31.0413598 C17.7635422,30.7038056 18.1296663,30.4959605 18.5257532,30.4962192 L28.6040219,30.5028599 C29.3595744,30.5032911 29.8642107,29.7910121 29.6744464,29.1225444 C29.6499155,29.0358704 29.6141704,28.9499726 29.5652838,28.8664034 L28.7111695,27.4078657 L24.0912073,19.5188947 C23.6917913,18.8368007 22.7298285,18.7933343 22.2588347,19.3890994 C22.2272949,19.429116 22.1978578,19.4718924 22.1709614,19.5176873 L21.4900529,20.6768764 L17.0373392,28.2572707 C16.8390767,28.5947387 16.472865,28.8025837 16.0768657,28.802325 L7.50961456,28.7967192 C6.6561135,28.7961155 6.12335433,27.8864268 6.5505429,27.1591416 L11.0852601,19.4392064 L22.1837525,0.545054526 C22.6109411,-0.182230737 23.6777736,-0.181540795 24.1039985,0.546261925 L29.9835361,10.5863863 L35.1770839,19.4549026 L46.2501693,38.3635433 Z" id="Audius-Logo"></path>
            </g>
        </g>
    </g>
</svg>