<?xml version="1.0" encoding="UTF-8"?>
<svg width="24px" height="24px" viewBox="0 0 24 24" version="1.1" xmlns="http://www.w3.org/2000/svg" xmlns:xlink="http://www.w3.org/1999/xlink">
    <!-- Generator: Sketch 55 (78076) - https://sketchapp.com -->
    <title>iconCodeSandbox</title>
    <desc>Created with Sketch.</desc>
    <g id="Hedgehog" stroke="none" stroke-width="1" fill="none" fill-rule="evenodd">
        <g id="assets" transform="translate(-993.000000, -3937.000000)" fill="#8D7D9D">
            <g id="iconCodeSandbox" transform="translate(993.000000, 3936.983609)">
                <path d="M20.8040178,6.41174906 C20.756978,6.38097365 20.7329718,6.36251443 20.7064864,6.34833124 C19.2462144,5.5674128 17.7851893,4.78784944 16.3266119,4.00397992 C16.2374278,3.95607026 16.1773337,3.97368632 16.0988818,4.0158143 C14.8360889,4.69398745 13.5711621,5.36845671 12.3095303,6.0485872 C12.2051893,6.10483814 12.1311935,6.10559097 12.0259425,6.04918946 C10.7078253,5.34289084 9.38587971,4.6430665 8.0673546,3.93737014 C7.9680659,3.88422083 7.89651778,3.88563614 7.79804498,3.93878545 C6.30921653,4.74258971 4.81787762,5.54217817 3.32732322,6.34309159 C3.28373536,6.36651945 3.24231276,6.3936813 3.18149686,6.43014806 C3.2512249,6.4691744 3.30309728,6.49955834 3.3562249,6.52777415 C6.18538808,8.0303187 9.01511611,9.53192974 11.8422709,11.0379373 C11.9557437,11.0983739 12.0351998,11.0865395 12.1404822,11.0302886 C14.2216538,9.91803764 16.3046768,8.80894856 18.3873546,7.69925721 C19.1862772,7.27358093 19.9852626,6.84793476 20.8040178,6.41174906 L20.8040178,6.41174906 Z M2.32524163,7.70244918 C2.32182113,7.76080803 2.31711402,7.80371895 2.31711402,7.84662986 C2.31676883,9.50747804 2.31789854,11.1683262 2.31413285,12.8291443 C2.31391318,12.9293902 2.34862029,12.9792873 2.43720816,13.0264743 C3.75739644,13.7288281 5.07463494,14.4363011 6.39573326,15.137059 C6.51297176,15.1993024 6.55025209,15.2678695 6.54975,15.3944642 C6.54441527,16.6739624 6.54780439,17.9534605 6.54410146,19.2329285 C6.54378766,19.3412447 6.57532531,19.4016813 6.67800314,19.455734 C8.12023117,20.2155132 9.55960356,20.9802008 10.9999174,21.7432923 C11.0435366,21.7664191 11.0897291,21.7850891 11.1506391,21.8132447 C11.1538713,21.746123 11.1582333,21.697611 11.1582333,21.649069 C11.1585471,18.6134153 11.1578253,15.5777315 11.1612144,12.5420778 C11.16134,12.426655 11.1261935,12.3637491 11.0192793,12.3071669 C8.17006381,10.7988105 5.32288808,9.28687077 2.47521025,7.77577415 C2.43083787,7.75222585 2.38486506,7.73150816 2.32524163,7.70244918 L2.32524163,7.70244918 Z M12.7182646,21.8734103 C12.8040596,21.8310113 12.8553672,21.8073124 12.9051056,21.7809034 C14.4542793,20.9577365 16.0025743,20.1330339 17.5538818,19.3135408 C17.6716538,19.2513275 17.7075533,19.1812547 17.7070199,19.0551117 C17.7017165,17.8206625 17.7069257,16.5861531 17.6999278,15.3517641 C17.6990492,15.1980376 17.7428881,15.1147754 17.8873023,15.0385596 C19.1001684,14.3983588 20.3068839,13.7474379 21.5182751,13.1046173 C21.6284215,13.046138 21.6712249,12.9827503 21.6708797,12.8601305 C21.6665492,11.194133 21.6680554,9.5281054 21.6676475,7.8621079 C21.6676475,7.80865747 21.662909,7.75520703 21.6592061,7.67724467 C21.5864969,7.7136813 21.5326789,7.73921706 21.4802416,7.76716186 C18.6074906,9.29756085 15.735273,10.8289235 12.860545,12.3559197 C12.746068,12.4167478 12.7158169,12.4861882 12.7159425,12.6038394 C12.7188923,15.6297666 12.7182646,18.6556637 12.7182646,21.681591 L12.7182646,21.8734103 Z M0.749990586,18.0240753 L0.749990586,6.00901882 C4.45552406,4.01867503 8.16133996,2.02884316 11.8649906,0.0352471769 C11.970022,-0.0213048934 12.0412877,-0.00402007528 12.1352416,0.0462986198 C15.7843211,1.99990464 19.4343734,3.95191468 23.0861203,5.90094354 C23.1914655,5.95716437 23.2307856,6.01681807 23.2306914,6.13383689 C23.2272709,10.0377967 23.2272709,13.9417566 23.2306287,17.8457164 C23.2307228,17.9668607 23.1909948,18.0301882 23.0800952,18.0890289 C19.4413086,20.0196888 15.8045931,21.9539021 12.1679718,23.8883262 C12.1146872,23.9166324 12.0663609,23.9535508 12.015681,23.9864341 L11.9529195,23.9864341 C11.8905659,23.9452999 11.831319,23.8987453 11.7653881,23.8637842 C8.09396548,21.9165922 4.42194665,19.970394 0.749990586,18.0240753 L0.749990586,18.0240753 Z" id="Fill-1"></path>
            </g>
        </g>
    </g>
</svg>