<?xml version="1.0" encoding="UTF-8"?>
<svg width="22px" height="22px" viewBox="0 0 22 22" version="1.1" xmlns="http://www.w3.org/2000/svg" xmlns:xlink="http://www.w3.org/1999/xlink">
    <!-- Generator: Sketch 55 (78076) - https://sketchapp.com -->
    <title>Brands/twitter-square</title>
    <desc>Created with Sketch.</desc>
    <g id="Page-1" stroke="none" stroke-width="1" fill="none" fill-rule="evenodd">
        <g id="assets" transform="translate(-1063.000000, -3938.000000)" fill="#FFFFFF">
            <g id="icon/social/twitter" transform="translate(1062.000000, 3937.000000)">
                <path d="M3.74,1.5 L20.26,1.5 C21.0475,1.5 21.3275,1.5875 21.6075,1.7275 C21.8875,1.885 22.115,2.1125 22.2725,2.3925 C22.43,2.6725 22.5,2.9525 22.5,3.74 L22.5,20.26 C22.5,21.0475 22.4125,21.3275 22.2725,21.6075 C22.115,21.8875 21.8875,22.115 21.6075,22.2725 C21.3275,22.43 21.0475,22.5 20.26,22.5 L3.74,22.5 C2.9525,22.5 2.6725,22.4125 2.3925,22.2725 C2.1125,22.1325 1.885,21.8875 1.7275,21.6075 C1.57,21.3275 1.5,21.0475 1.5,20.26 L1.5,3.74 C1.5,2.9525 1.5875,2.6725 1.7275,2.3925 C1.885,2.1125 2.1125,1.885 2.3925,1.7275 C2.6725,1.5875 2.97,1.5 3.74,1.5 Z M8.864,18.44 C15.2032,18.44 18.6752,13.2707692 18.6752,8.80543372 C18.6752,8.65145663 18.6752,8.51947627 18.6752,8.36549918 C19.3472,7.88157119 19.9296,7.28765957 20.4,6.60576105 C19.7728,6.86972177 19.1232,7.04569558 18.4288,7.13368249 C19.1456,6.71574468 19.6832,6.05584288 19.952,5.26396072 C19.28,5.6599018 18.5408,5.92386252 17.7568,6.07783961 C17.1296,5.41793781 16.2336,5 15.248,5 C13.344,5 11.7984,6.51777414 11.7984,8.38749591 C11.7984,8.65145663 11.8208,8.91541735 11.888,9.15738134 C9.0208,9.02540098 6.4896,7.66160393 4.7872,5.61590835 C4.496,6.12183306 4.3168,6.69374795 4.3168,7.3096563 C4.3168,8.47548282 4.9216,9.5313257 5.84,10.1252373 C5.28,10.1032406 4.7424,9.9492635 4.272,9.70729951 C4.272,9.72929624 4.272,9.72929624 4.272,9.75129296 C4.272,11.3790507 5.4592,12.7648445 7.0272,13.0727987 C6.736,13.1607856 6.4448,13.1827823 6.1312,13.1827823 C5.9072,13.1827823 5.6832,13.1607856 5.4816,13.1167921 C5.9296,14.4585925 7.2064,15.4484452 8.7072,15.4704419 C7.52,16.3723077 6.0416,16.9222259 4.4288,16.9222259 C4.16,16.9222259 3.8688,16.9002291 3.6,16.8782324 C5.1008,17.8680851 6.9152,18.44 8.864,18.44 Z" id="Combined-Shape"></path>
            </g>
        </g>
    </g>
</svg>