<?xml version="1.0" encoding="UTF-8"?>
<svg width="22px" height="22px" viewBox="0 0 22 22" version="1.1" xmlns="http://www.w3.org/2000/svg" xmlns:xlink="http://www.w3.org/1999/xlink">
    <!-- Generator: Sketch 55 (78076) - https://sketchapp.com -->
    <title>Brands/instagram</title>
    <desc>Created with Sketch.</desc>
    <g id="Page-1" stroke="none" stroke-width="1" fill="none" fill-rule="evenodd">
        <g id="assets" transform="translate(-1095.000000, -3938.000000)" fill="#FFFFFF">
            <g id="icon/social/instagram" transform="translate(1094.000000, 3937.000000)">
                <path d="M22.4262131,7.67019971 C22.5245956,9.4039942 22.5245956,14.5960058 22.4262131,16.3298003 C22.3418851,18.0120495 21.9577245,19.5021756 20.7302844,20.7298895 C19.5028444,21.9622894 18.0130508,22.3465358 16.3311768,22.4261966 C14.5977691,22.5246011 9.4022309,22.5246011 7.6688232,22.4261966 C5.98694925,22.3418498 4.50184049,21.9576035 3.26971556,20.7298895 C2.03759063,19.5021756 1.65343001,18.0120495 1.57378695,16.3298003 C1.47540435,14.5960058 1.47540435,9.39930827 1.57378695,7.66551378 C1.65811489,5.98326453 2.03759063,4.49313846 3.26971556,3.26542452 C4.50184049,2.03771059 5.99163413,1.65346424 7.6688232,1.57380341 C9.4022309,1.47539886 14.5977691,1.47539886 16.3311768,1.57380341 C18.0130508,1.65815017 19.5028444,2.04239652 20.7302844,3.27011045 C21.9624094,4.49782439 22.34657,5.98795046 22.4262131,7.67019971 Z M12,6.27272727 C8.82981249,6.27272727 6.27272727,8.82981249 6.27272727,12 C6.27272727,15.1701875 8.82981249,17.7272727 12,17.7272727 C15.1701875,17.7272727 17.7272727,15.1701875 17.7272727,12 C17.7272727,8.82981249 15.1701875,6.27272727 12,6.27272727 Z M12,15.8181818 C9.8992333,15.8181818 8.18181818,14.1058781 8.18181818,12 C8.18181818,9.89412194 9.89412194,8.18181818 12,8.18181818 C14.1058781,8.18181818 15.8181818,9.89412194 15.8181818,12 C15.8181818,14.1058781 14.1007667,15.8181818 12,15.8181818 Z M19.6363636,5.79545455 C19.6363636,5.00474898 18.995251,4.36363636 18.2045455,4.36363636 C17.4138399,4.36363636 16.7727273,5.00474898 16.7727273,5.79545455 C16.7727273,6.58616011 17.4084973,7.22727273 18.2045455,7.22727273 C18.995251,7.22727273 19.6363636,6.59150271 19.6363636,5.79545455 Z" id="Combined-Shape"></path>
            </g>
        </g>
    </g>
</svg>